<mxfile host="app.diagrams.net" agent="Mozilla/5.0 (Windows NT 10.0; Win64; x64) AppleWebKit/537.36 (KHTML, like Gecko) Chrome/138.0.0.0 Safari/537.36 Edg/138.0.0.0" version="27.2.0">
  <diagram name="第 1 页" id="mTfFUKI4gUmn2MwX5lr2">
    <mxGraphModel dx="2018" dy="1112" grid="1" gridSize="10" guides="1" tooltips="1" connect="1" arrows="1" fold="1" page="1" pageScale="1" pageWidth="827" pageHeight="1169" math="0" shadow="0">
      <root>
        <mxCell id="0" />
        <mxCell id="1" parent="0" />
        <mxCell id="jDFxtpQfJSsYV233FSvY-4" style="edgeStyle=orthogonalEdgeStyle;rounded=0;orthogonalLoop=1;jettySize=auto;html=1;exitX=0.5;exitY=1;exitDx=0;exitDy=0;entryX=0;entryY=0.5;entryDx=0;entryDy=0;" edge="1" parent="1" source="jDFxtpQfJSsYV233FSvY-1" target="jDFxtpQfJSsYV233FSvY-3">
          <mxGeometry relative="1" as="geometry" />
        </mxCell>
        <mxCell id="jDFxtpQfJSsYV233FSvY-8" value="统计分析" style="edgeLabel;html=1;align=center;verticalAlign=middle;resizable=0;points=[];" vertex="1" connectable="0" parent="jDFxtpQfJSsYV233FSvY-4">
          <mxGeometry x="-0.3285" y="-2" relative="1" as="geometry">
            <mxPoint as="offset" />
          </mxGeometry>
        </mxCell>
        <mxCell id="jDFxtpQfJSsYV233FSvY-1" value="大数据平台" style="rounded=0;whiteSpace=wrap;html=1;fillColor=#d5e8d4;strokeColor=#82b366;" vertex="1" parent="1">
          <mxGeometry x="220" y="410" width="120" height="60" as="geometry" />
        </mxCell>
        <mxCell id="jDFxtpQfJSsYV233FSvY-5" style="edgeStyle=orthogonalEdgeStyle;rounded=0;orthogonalLoop=1;jettySize=auto;html=1;exitX=0.5;exitY=1;exitDx=0;exitDy=0;entryX=1;entryY=0.5;entryDx=0;entryDy=0;" edge="1" parent="1" source="jDFxtpQfJSsYV233FSvY-2" target="jDFxtpQfJSsYV233FSvY-3">
          <mxGeometry relative="1" as="geometry" />
        </mxCell>
        <mxCell id="jDFxtpQfJSsYV233FSvY-9" value="数据接口" style="edgeLabel;html=1;align=center;verticalAlign=middle;resizable=0;points=[];" vertex="1" connectable="0" parent="jDFxtpQfJSsYV233FSvY-5">
          <mxGeometry x="-0.3594" relative="1" as="geometry">
            <mxPoint as="offset" />
          </mxGeometry>
        </mxCell>
        <mxCell id="jDFxtpQfJSsYV233FSvY-6" style="edgeStyle=orthogonalEdgeStyle;rounded=0;orthogonalLoop=1;jettySize=auto;html=1;exitX=0;exitY=0.5;exitDx=0;exitDy=0;entryX=1;entryY=0.5;entryDx=0;entryDy=0;" edge="1" parent="1" source="jDFxtpQfJSsYV233FSvY-2" target="jDFxtpQfJSsYV233FSvY-1">
          <mxGeometry relative="1" as="geometry" />
        </mxCell>
        <mxCell id="jDFxtpQfJSsYV233FSvY-7" value="消息推送" style="edgeLabel;html=1;align=center;verticalAlign=middle;resizable=0;points=[];" vertex="1" connectable="0" parent="jDFxtpQfJSsYV233FSvY-6">
          <mxGeometry x="0.008" y="1" relative="1" as="geometry">
            <mxPoint as="offset" />
          </mxGeometry>
        </mxCell>
        <mxCell id="jDFxtpQfJSsYV233FSvY-2" value="运营平台" style="rounded=0;whiteSpace=wrap;html=1;fillColor=#fff2cc;strokeColor=#d6b656;" vertex="1" parent="1">
          <mxGeometry x="590" y="410" width="120" height="60" as="geometry" />
        </mxCell>
        <mxCell id="jDFxtpQfJSsYV233FSvY-3" value="数据服务" style="rounded=0;whiteSpace=wrap;html=1;fillColor=#f8cecc;strokeColor=#b85450;" vertex="1" parent="1">
          <mxGeometry x="414" y="580" width="120" height="60" as="geometry" />
        </mxCell>
      </root>
    </mxGraphModel>
  </diagram>
</mxfile>
